<?xml version="1.0" encoding="iso-8859-1"?>
<!-- Generator: Adobe Illustrator 18.1.1, SVG Export Plug-In . SVG Version: 6.00 Build 0)  -->
<svg version="1.1" id="Capa_1" xmlns="http://www.w3.org/2000/svg" xmlns:xlink="http://www.w3.org/1999/xlink" x="0px" y="0px"
	 viewBox="0 0 86.293 86.293" style="enable-background:new 0 0 86.293 86.293;" xml:space="preserve">
<g>
	<path style="fill:#010002;" d="M77.446,67.363V48.391v-2.18c5.279-3.11,8.847-8.786,8.847-15.357
		c0-9.899-14.909-19.956-16.212-29.322c-7.977,9.205,0.05,15.024-3.421,24.529c-0.326-4.975-2.688-10.837-9.613-13.524
		c1.961,6.281-3.482,8.417-5.701,13.739h-40.28c-1.736,0-3.167,1.417-3.167,3.16v18.968v18.971v3.16L0,80.021
		c0,2.613,2.122,4.738,4.738,4.738h75.868c2.613,0,4.735-2.126,4.735-4.738l-7.899-9.484v-3.174H77.446z M48.998,83.167H36.354
		c-0.437,0-0.791-0.354-0.791-0.795c0-0.437,0.354-0.787,0.791-0.787h12.644c0.437,0,0.791,0.351,0.791,0.787
		C49.782,82.816,49.435,83.167,48.998,83.167z M29.644,80.007l2.412-2.895h21.237l2.416,2.895
		C55.708,80.007,29.644,80.007,29.644,80.007z M70.239,67.689H15.103c-1.514,0-2.756-1.245-2.756-2.759V31.861
		c0-1.525,1.242-2.759,2.756-2.759h35.466c-0.075,0.551-0.129,1.131-0.129,1.761c0,8.31,5.687,15.239,13.36,17.264
		c-2.527-2.341,0.916-6.907-1.714-10.214c3.293,1.052,6.274,3.464,6.274,7.698c3.164-2.162-0.472-7.891,4.627-11.961v31.279
		C72.998,66.454,71.752,67.689,70.239,67.689z"/>
</g>
<g>
</g>
<g>
</g>
<g>
</g>
<g>
</g>
<g>
</g>
<g>
</g>
<g>
</g>
<g>
</g>
<g>
</g>
<g>
</g>
<g>
</g>
<g>
</g>
<g>
</g>
<g>
</g>
<g>
</g>
</svg>
